/* XPM */
static char *c7abb16e4b2146c68198b86b863a4763fZ7jcjHAQmagmcNZ[] = {
/* columns rows colors chars-per-pixel */
"32 32 2 1 ",
"  c #9C5A3C",
". c #E5AA7A",
/* pixels */
"................................",
".  .   .   .   .   .   .   .   .",
".  .   .   .   .   .   .   .   .",
"................................",
".  .   .   .   .   .   .   .   .",
".  .   .   .   .   .   .   .   .",
"................................",
".  .   .   .   .   .   .   .   .",
".  .   .   .   .   .   .   .   .",
"................................",
".  .   .   .   .   .   .   .   .",
".  .   .   .   .   .   .   .   .",
"................................",
".  .   .   .   .   .   .   .   .",
".  .   .   .   .   .   .   .   .",
"................................",
".  .   .   .   .   .   .   .   .",
".  .   .   .   .   .   .   .   .",
"................................",
".  .   .   .   .   .   .   .   .",
".  .   .   .   .   .   .   .   .",
"................................",
".  .   .   .   .   .   .   .   .",
".  .   .   .   .   .   .   .   .",
"................................",
".  .   .   .   .   .   .   .   .",
".  .   .   .   .   .   .   .   .",
"................................",
".  .   .   .   .   .   .   .   .",
".  .   .   .   .   .   .   .   .",
"................................",
".  .   .   .   .   .   .   .   ."
};
