/* XPM */
static char *c226db0f813f45cfff785fbfcfa4ae74aXTN6svAnvCIDBFZ[] = {
/* columns rows colors chars-per-pixel */
"32 32 2 1 ",
"  c #9C5A3C",
". c #22B14C",
/* pixels */
"................................",
"................................",
"................................",
"................................",
"................................",
"................................",
".....                        ...",
"..... ..........................",
"..... ..........................",
"..... ..........................",
"..... ..........................",
"..... ..........................",
"..... ..........................",
"..... ..........................",
"..... ..........................",
"..... ..........................",
"..... ..........................",
"..... ..........................",
".....                        ...",
"..... ..........................",
"..... ..........................",
"..... ..........................",
"..... ..........................",
"..... ..........................",
"..... ..........................",
"..... ..........................",
"..... ..........................",
"..... ..........................",
"..... ..........................",
".....                        ...",
"................................",
"................................"
};
