/* XPM */
static char *bcdac0b8cf134beb883bd9deca860cb0SkJhRAgXCSswczSe[] = {
/* columns rows colors chars-per-pixel */
"32 32 2 1 ",
"  c #CF0F0F",
". c #5BFF04",
/* pixels */
"                                ",
"                                ",
"                                ",
"                                ",
"                                ",
"                                ",
"                                ",
"                                ",
"   ...........................  ",
"   .                            ",
"   .                            ",
"   .                            ",
"   .                            ",
"   .                            ",
"   .                            ",
"   .                            ",
"   .                            ",
"   .                            ",
"   .........................    ",
"   .                            ",
"   .                            ",
"   .                            ",
"   .                            ",
"   .                            ",
"   .                            ",
"   .                            ",
"   .                            ",
"   .                            ",
"   ............................ ",
"                                ",
"                                ",
"                                "
};
