/* XPM */
static char *_7750a262d2b466be7a2bfe38ee6c801aU0SBmS313w16bKU[] = {
/* columns rows colors chars-per-pixel */
"32 32 2 1 ",
"  c black",
". c #4DFF00",
/* pixels */
"................................",
"................................",
"................................",
"................................",
"................................",
"................................",
"................................",
"................................",
"...    ..................    ...",
"...    ..................    ...",
"...    ..................    ...",
"................................",
"................................",
"................................",
"................................",
".............   ................",
".............   ............. ..",
"............................. ..",
"............................ ...",
"....... ...................  ...",
".......  .............     .....",
".........             ..........",
"................................",
"................................",
"................................",
"................................",
"................................",
"................................",
"................................",
"................................",
"................................",
"................................"
};
