/* XPM */
static char *fb3a7553676144889f296c88397ea417b5fuWyVrEfPedWJO[] = {
/* columns rows colors chars-per-pixel */
"35 40 21 1 ",
"  c None",
". c #2C2520",
"X c #2E2A26",
"o c #22222F",
"O c #2A2A39",
"+ c #4E3519",
"@ c #533A30",
"# c #584C43",
"$ c #605759",
"% c #775F52",
"& c #756457",
"* c #8E5C2D",
"= c #A0735C",
"- c #BD8859",
"; c #A38C7A",
": c #D88F47",
"> c #A49690",
", c #CBB3A0",
"< c #EDD0BB",
"1 c #F3E6DC",
"2 c white",
/* pixels */
"               ,,,,,,,,            ",
"             ,,,,<<<<<,,,          ",
"            ;;,,,,,<<<<,,,         ",
"           ;;;;,,,,,,,,,,,         ",
"           ;;;;;;,,,,,,,,,;        ",
"           ;;;;;;;;;,,,,,;;        ",
"           ;;;;;,,,,,,,,,,,        ",
"           &;;;;,OOO;,,,;OO        ",
"           &;;;;,OOOO;;;OOO        ",
"           &&&&;;OOOO;;;OOO        ",
"           #&&&&;;OO,,oo,OO        ",
"           ###&&,,,,,,oo,,,        ",
"            ###&,,,,,,$$,,,        ",
"             ##&&&,,;;;;;,         ",
"                 X&&,;;;;          ",
"      <<&&,,;&& XXX&,&,&,          ",
"     <<<<&<&&&&&&XX&,;,&,          ",
"    <<<<<X<&&&&&&XXX#####,,,       ",
"  ;;,,,,&&<<&&&&&&;;&&&<&,<<,      ",
" ;;;,,,;X&<<<,;;;&,,;,,<&,<,,      ",
"@@;;;;  &&;,,,,,;&,,;;;;&&,,;;     ",
"@@@;    &&,;&&;&;;,,&;,,,X;;;;     ",
"-%@  +: X&,,,,;;;;,,&;;;&&  ;;&    ",
"@@@  +:>1&&;&&&&;,,,,;&&;;  &&;;   ",
";,,,.+:>12222,;;&&&&,;,,;;   &;;   ",
",,,==+*>12222222&XX&&&,,,    &&&   ",
",,,..+*>11111   XXX          ;;;;  ",
" ;;;.+*>>  ;;;;&XXX&;;      ;;,,,, ",
"     +*   ;;&&&&XXX&&;;       ,,,,,",
"          ,,&&&&&&&&&&,       , , ,",
"           <<&&&,,,&&,,            ",
"          &X<<,,,,,,,,X            ",
"          &&XX,,,  ,,;X&           ",
"         &&&&&      &X&&&          ",
"         ;;&&        &;;,          ",
"        ,<,&           ,<<         ",
"        <<,            ,<<         ",
"        ,,              ,,         ",
"       ;;;;             ;;;        ",
"       ,,,,             ,,,        "
};
